<svg width="1243" height="166" viewBox="0 0 1243 166" fill="none" xmlns="http://www.w3.org/2000/svg">
<path opacity="0.9" d="M1178 116C1147.07 116 1122 91.1518 1122 60.5C1122 29.8482 1147.07 5 1178 5" stroke="#D1DE74" stroke-width="10" stroke-linecap="round"/>
<path opacity="0.9" d="M1190 67C1212.64 67 1231 85.3563 1231 108C1231 130.644 1212.64 149 1190 149" stroke="#D35B50" stroke-width="20"/>
<path opacity="0.9" d="M1235 1C1235 9.83656 1227.39 17 1218 17C1208.61 17 1201 9.83656 1201 1" stroke="#F3CE6E" stroke-width="15"/>
<path fill-rule="evenodd" clip-rule="evenodd" d="M27.4789 151.421C26.7643 150.672 25.5827 150.649 24.8395 151.369L14 161.873L3.16047 151.369C2.41734 150.649 1.23566 150.672 0.521116 151.421C-0.193431 152.17 -0.170262 153.361 0.572868 154.081L12.0593 165.212C13.1432 166.263 14.8568 166.263 15.9407 165.212L27.4271 154.081C28.1703 153.361 28.1934 152.17 27.4789 151.421ZM27.4789 134.96C26.7643 134.211 25.5827 134.188 24.8395 134.908L14 145.412L3.16047 134.908C2.41734 134.188 1.23566 134.211 0.521115 134.96C-0.193431 135.709 -0.170263 136.9 0.572867 137.62L12.0593 148.751C13.1432 149.802 14.8568 149.802 15.9407 148.751L27.4271 137.62C28.1703 136.9 28.1934 135.709 27.4789 134.96ZM24.8395 118.447C25.5827 117.727 26.7643 117.75 27.4789 118.499C28.1934 119.248 28.1703 120.439 27.4271 121.159L15.9407 132.29C14.8568 133.341 13.1432 133.341 12.0593 132.29L0.572866 121.159C-0.170263 120.439 -0.193432 119.248 0.521114 118.499C1.23566 117.75 2.41734 117.727 3.16047 118.447L14 128.951L24.8395 118.447ZM27.4789 102.038C26.7643 101.289 25.5827 101.266 24.8395 101.986L14 112.49L3.16047 101.986C2.41734 101.266 1.23566 101.289 0.521113 102.038C-0.193433 102.787 -0.170264 103.978 0.572866 104.698L12.0593 115.829C13.1432 116.88 14.8568 116.88 15.9407 115.829L27.4271 104.698C28.1703 103.978 28.1934 102.787 27.4789 102.038ZM24.8395 85.5252C25.5827 84.8051 26.7643 84.8284 27.4789 85.5773C28.1934 86.3263 28.1703 87.5172 27.4271 88.2373L15.9407 99.3683C14.8568 100.419 13.1432 100.419 12.0593 99.3683L0.572865 88.2373C-0.170265 87.5172 -0.193433 86.3263 0.521113 85.5773C1.23566 84.8284 2.41734 84.8051 3.16047 85.5252L14 96.0293L24.8395 85.5252Z" fill="#EEEEEE"/>
</svg>
