<svg width="92" height="106" viewBox="0 0 92 106" fill="none" xmlns="http://www.w3.org/2000/svg">
<path d="M47.8104 29H44.6518C37.1436 29 31 35.1511 31 42.6685V64.3315C31 71.8489 37.1436 78 44.6518 78H47.8104C55.3187 78 61.4622 71.8489 61.4622 64.3315V42.6685C61.4622 35.1511 55.3187 29 47.8104 29Z" fill="#D0CFCE"/>
<path d="M45.849 35.8304C45.1575 35.8324 44.4948 36.1126 44.0058 36.6098C43.5167 37.1069 43.2411 37.7806 43.2391 38.4837V45.9474C43.2415 46.6503 43.5172 47.3236 44.0062 47.8205C44.4952 48.3174 45.1577 48.5974 45.849 48.5995C46.5404 48.5974 47.2029 48.3174 47.6919 47.8205C48.1809 47.3236 48.4566 46.6503 48.4589 45.9474V38.4837C48.4569 37.7806 48.1813 37.1069 47.6923 36.6098C47.2033 36.1126 46.5406 35.8324 45.849 35.8304Z" fill="#D1DE74"/>
<path d="M44.6851 30.7962C48.4943 32.4581 52.1147 34.8428 52.5362 40.8685C53.0245 47.8473 50.4851 60.9145 49.6671 67.5517C49.0971 72.1918 46.8395 74.3411 43.8408 76.7757C42.3307 78.0052 50.4687 77.8555 53.8198 75.8635C56.6965 74.1543 59.4825 71.2208 59.5165 72.1483L59.923 39.135C59.923 39.135 58.7439 30.2602 49.1436 30.2564C49.1436 30.2564 39.5144 29.7536 44.6851 30.7962Z" fill="#F3CE6E"/>
<path d="M49.3373 77.2671H42.3695C36.1154 77.2671 31 72.0666 31 65.7095V41.2908C31 34.9337 36.1166 29.7332 42.3695 29.7332H49.336C55.5902 29.7332 60.7055 34.9337 60.7055 41.2908V65.7095C60.7055 72.0666 55.5889 77.2671 49.336 77.2671H49.3373Z" stroke="#222222" stroke-width="2.55556" stroke-miterlimit="10" stroke-linecap="round" stroke-linejoin="round"/>
<g filter="url(#filter0_f_90_2292)">
<circle cx="45.5" cy="50.5" r="2.5" fill="#D9D9D9"/>
</g>
<path d="M45.9581 48.6789H45.7467C45.0697 48.6772 44.4209 48.4031 43.9422 47.9164C43.4635 47.4297 43.1938 46.7701 43.1921 46.0819V38.3483C43.1921 36.9205 44.3423 35.7525 45.7467 35.7525H45.9581C47.3624 35.7525 48.5126 36.9205 48.5126 38.3495V46.0844C48.5126 47.5122 47.3624 48.6815 45.9581 48.6815V48.6789Z" stroke="#222222" stroke-width="2.55556" stroke-miterlimit="10" stroke-linecap="round" stroke-linejoin="round"/>
<path d="M39 84L45.6649 90.6649M52.3834 84L45.7186 90.6649" stroke="#222222" stroke-width="2.55556" stroke-miterlimit="10" stroke-linecap="round" stroke-linejoin="round"/>
<defs>
<filter id="filter0_f_90_2292" x="41" y="46" width="9" height="9" filterUnits="userSpaceOnUse" color-interpolation-filters="sRGB">
<feFlood flood-opacity="0" result="BackgroundImageFix"/>
<feBlend mode="normal" in="SourceGraphic" in2="BackgroundImageFix" result="shape"/>
<feGaussianBlur stdDeviation="1" result="effect1_foregroundBlur_90_2292"/>
</filter>
</defs>
</svg>
