<svg width="111" height="36" viewBox="0 0 111 36" fill="none" xmlns="http://www.w3.org/2000/svg">
<path d="M1.14701 10.7957C0.603856 10.8957 0.244628 11.4171 0.34465 11.9603L1.9746 20.8114C2.07462 21.3546 2.59601 21.7138 3.13916 21.6138C3.68232 21.5138 4.04155 20.9924 3.94152 20.4492L2.49268 12.5815L10.3604 11.1327C10.9035 11.0327 11.2628 10.5113 11.1628 9.96811C11.0627 9.42496 10.5413 9.06573 9.99818 9.16575L1.14701 10.7957ZM76.4145 13.8701L75.479 14.2234L76.4145 13.8701ZM25.747 23.9864L25.5106 24.958L25.747 23.9864ZM81.7231 33.4875L81.5337 34.4694L81.7231 33.4875ZM42.7762 10.1761L43.6165 10.7182L42.7762 10.1761ZM1.32811 11.7792C0.76076 12.6026 0.760783 12.6026 0.760808 12.6027C0.76082 12.6027 0.760848 12.6027 0.760872 12.6027C0.76092 12.6027 0.760979 12.6028 0.761048 12.6028C0.761187 12.6029 0.761368 12.6031 0.761592 12.6032C0.76204 12.6035 0.762658 12.6039 0.763446 12.6045C0.765022 12.6056 0.767276 12.6071 0.770202 12.6091C0.776055 12.6131 0.784597 12.619 0.79578 12.6267C0.818146 12.642 0.851079 12.6644 0.894191 12.6937C0.980415 12.7523 1.10737 12.8382 1.27198 12.9483C1.60117 13.1687 2.08106 13.4863 2.68698 13.878L3.77263 12.1983C3.17646 11.813 2.70551 11.5012 2.38438 11.2862C2.22382 11.1788 2.10075 11.0956 2.01823 11.0395C1.97697 11.0115 1.94585 10.9902 1.92526 10.9761C1.91497 10.9691 1.90731 10.9638 1.90233 10.9604C1.89983 10.9587 1.89801 10.9574 1.89687 10.9566C1.8963 10.9563 1.89589 10.956 1.89566 10.9558C1.89554 10.9557 1.89547 10.9557 1.89543 10.9557C1.89542 10.9557 1.89541 10.9556 1.89542 10.9557C1.89542 10.9557 1.89543 10.9557 1.89543 10.9557C1.89545 10.9557 1.89547 10.9557 1.32811 11.7792ZM6.59873 16.3116C7.80717 17.0356 9.15355 17.8168 10.5877 18.6076L11.5534 16.8562C10.1432 16.0786 8.81767 15.3095 7.62657 14.5959L6.59873 16.3116ZM14.6755 20.7503C16.0534 21.4327 17.4672 22.0898 18.8815 22.6875L19.6601 20.8453C18.2888 20.2658 16.9117 19.626 15.5631 18.9581L14.6755 20.7503ZM23.2473 24.3191C24.0123 24.5625 24.7688 24.7775 25.5106 24.958L25.9834 23.0147C25.2922 22.8465 24.5805 22.6445 23.8536 22.4132L23.2473 24.3191ZM25.5106 24.958C26.1148 25.105 26.7361 25.2511 27.3728 25.3956L27.8156 23.4453C27.1886 23.3029 26.5773 23.1592 25.9834 23.0147L25.5106 24.958ZM31.1093 26.1894C32.3272 26.4313 33.583 26.6648 34.8666 26.8866L35.2071 24.9158C33.9399 24.6968 32.7005 24.4664 31.4989 24.2277L31.1093 26.1894ZM38.6441 27.4916C39.8939 27.676 41.16 27.8471 42.434 28.002L42.6754 26.0166C41.4189 25.8638 40.1697 25.695 38.9361 25.513L38.6441 27.4916ZM46.2386 28.4122C47.5137 28.5315 48.7888 28.632 50.0554 28.7108L50.1796 26.7147C48.935 26.6373 47.6807 26.5384 46.425 26.4209L46.2386 28.4122ZM53.8886 28.8809C55.1913 28.914 56.4763 28.92 57.7338 28.8954L57.6947 26.8958C56.4699 26.9198 55.2151 26.914 53.9394 26.8815L53.8886 28.8809ZM61.5834 28.7135C62.9156 28.61 64.2033 28.4633 65.4322 28.2682L65.1185 26.2929C63.9493 26.4786 62.7151 26.6195 61.4284 26.7196L61.5834 28.7135ZM69.2627 27.439C70.6214 27.0517 71.8755 26.5751 72.9904 25.9942L72.0663 24.2205C71.0959 24.7261 69.9727 25.1569 68.7144 25.5156L69.2627 27.439ZM76.2886 23.4892C77.24 22.3998 77.8842 21.1176 78.1468 19.637L76.1775 19.2877C75.9817 20.3919 75.5068 21.344 74.7822 22.1735L76.2886 23.4892ZM77.9516 15.4578C77.8024 14.8312 77.6022 14.1844 77.35 13.5167L75.479 14.2234C75.7041 14.8194 75.8783 15.3848 76.0059 15.9208L77.9516 15.4578ZM77.35 13.5167C77.0864 12.8188 76.7972 12.1511 76.4841 11.5131L74.6887 12.3942C74.9732 12.974 75.2373 13.5834 75.479 14.2234L77.35 13.5167ZM74.1588 7.8161C73.2143 6.62828 72.1653 5.60024 71.037 4.72541L69.8115 6.30595C70.8138 7.08311 71.7486 7.99849 72.5933 9.06083L74.1588 7.8161ZM67.2618 2.47395C65.912 1.87573 64.5065 1.44553 63.0772 1.1722L62.7015 3.13661C63.9882 3.38266 65.2472 3.76873 66.4514 4.30242L67.2618 2.47395ZM58.7259 0.81191C57.2689 0.842707 55.8173 1.02122 54.402 1.33704L54.8376 3.28903C56.126 3.00152 57.4459 2.83941 58.7682 2.81146L58.7259 0.81191ZM50.2648 2.69979C48.9246 3.29491 47.6515 4.0241 46.4793 4.87809L47.657 6.49457C48.7104 5.7271 49.8602 5.06779 51.0765 4.52769L50.2648 2.69979ZM43.2542 7.85893C42.7778 8.42066 42.3367 9.01276 41.9359 9.63389L43.6165 10.7182C43.9687 10.1723 44.3576 9.64998 44.7794 9.15267L43.2542 7.85893ZM41.9359 9.63389C41.4794 10.3414 41.1244 11.0467 40.8706 11.7501L42.752 12.4287C42.9484 11.8843 43.2319 11.3142 43.6165 10.7182L41.9359 9.63389ZM40.7472 16.5742C41.2108 18.0127 42.1056 19.3252 43.2845 20.5197L44.7079 19.1149C43.681 18.0743 42.9927 17.0215 42.6507 15.9606L40.7472 16.5742ZM46.7933 23.3025C47.9587 24.0547 49.2479 24.7676 50.6285 25.4429L51.5073 23.6463C50.1823 22.9982 48.9642 22.3233 47.878 21.6222L46.7933 23.3025ZM54.5968 27.1931C55.9029 27.716 57.2606 28.2145 58.6514 28.6894L59.2976 26.7967C57.9349 26.3314 56.6099 25.8447 55.34 25.3364L54.5968 27.1931ZM62.7568 29.9996C64.1258 30.4088 65.5104 30.7976 66.895 31.1664L67.4098 29.2338C66.0424 28.8696 64.6773 28.4862 63.3297 28.0834L62.7568 29.9996ZM71.0588 32.2192C72.475 32.5595 73.8753 32.879 75.2426 33.1781L75.6701 31.2243C74.3146 30.9278 72.9276 30.6113 71.526 30.2746L71.0588 32.2192ZM79.4378 34.057C80.1533 34.2007 80.8529 34.3381 81.5337 34.4694L81.9124 32.5055C81.2363 32.3751 80.5416 32.2387 79.8315 32.0962L79.4378 34.057ZM81.5337 34.4694C82.1469 34.5876 82.7559 34.6956 83.3601 34.794L83.6815 32.82C83.0962 32.7247 82.5063 32.6201 81.9124 32.5055L81.5337 34.4694ZM87.0317 35.2853C88.2921 35.418 89.5245 35.5115 90.7231 35.5719L90.8238 33.5744C89.6599 33.5158 88.4638 33.4251 87.2411 33.2963L87.0317 35.2853ZM94.421 35.6598C95.709 35.6565 96.9447 35.6181 98.1193 35.5541L98.0104 33.5571C96.8686 33.6193 95.6675 33.6566 94.4158 33.6598L94.421 35.6598ZM101.809 35.257C103.161 35.1127 104.39 34.9419 105.479 34.7657L105.159 32.7914C104.104 32.9622 102.91 33.1281 101.597 33.2683L101.809 35.257ZM109.116 34.0633C109.699 33.9302 110.153 33.8154 110.463 33.7331C110.618 33.692 110.737 33.659 110.818 33.6359C110.859 33.6244 110.89 33.6153 110.912 33.6089C110.923 33.6058 110.931 33.6033 110.938 33.6015C110.941 33.6006 110.943 33.5999 110.945 33.5993C110.946 33.599 110.947 33.5988 110.947 33.5986C110.947 33.5985 110.948 33.5985 110.948 33.5984C110.948 33.5984 110.948 33.5983 110.948 33.5983C110.948 33.5983 110.948 33.5983 110.948 33.5983C110.948 33.5982 110.948 33.5982 110.661 32.6404C110.374 31.6825 110.374 31.6825 110.374 31.6825C110.374 31.6825 110.374 31.6824 110.374 31.6824C110.374 31.6824 110.374 31.6824 110.374 31.6824C110.374 31.6824 110.374 31.6824 110.374 31.6824C110.374 31.6824 110.374 31.6824 110.374 31.6825C110.373 31.6827 110.372 31.683 110.37 31.6836C110.367 31.6847 110.361 31.6864 110.352 31.6889C110.335 31.6938 110.309 31.7014 110.273 31.7115C110.202 31.7317 110.093 31.7618 109.949 31.8001C109.661 31.8767 109.231 31.9858 108.671 32.1134L109.116 34.0633Z" fill="#D1DE74"/>
</svg>
